<svg id="visual" viewBox="0 0 900 600" width="900" height="600" xmlns="http://www.w3.org/2000/svg" xmlns:xlink="http://www.w3.org/1999/xlink" version="1.1"><rect x="0" y="0" width="900" height="600" fill="#1c2094"></rect><path d="M0 369L129 419L257 351L386 393L514 354L643 416L771 407L900 420L900 601L771 601L643 601L514 601L386 601L257 601L129 601L0 601Z" fill="#001122"></path><path d="M0 393L129 471L257 446L386 422L514 439L643 418L771 440L900 434L900 601L771 601L643 601L514 601L386 601L257 601L129 601L0 601Z" fill="#002854"></path><path d="M0 478L129 493L257 486L386 497L514 459L643 467L771 453L900 506L900 601L771 601L643 601L514 601L386 601L257 601L129 601L0 601Z" fill="#003d8a"></path><path d="M0 519L129 498L257 485L386 520L514 515L643 511L771 522L900 525L900 601L771 601L643 601L514 601L386 601L257 601L129 601L0 601Z" fill="#374fbf"></path><path d="M0 569L129 553L257 560L386 566L514 555L643 544L771 545L900 571L900 601L771 601L643 601L514 601L386 601L257 601L129 601L0 601Z" fill="#715df2"></path></svg>